<svg width="1540" height="900" viewBox="0 0 1540 900" fill=" #3175d3" xmlns="http://www.w3.org/2000/svg">
<rect width="1540" height="900" fill="#3175d3"/>
<g clip-path="url(#clip0_1:59)">
<path d="M249.892 728.709L190.739 601.269L-0.42201 689.998L58.7311 817.439L249.892 728.709ZM180.88 580.028C186.514 577.414 192.955 577.144 198.787 579.278C204.619 581.413 209.365 585.776 211.979 591.41L271.132 718.851C273.747 724.484 274.017 730.925 271.883 736.757C269.748 742.589 265.384 747.335 259.751 749.95L185.411 784.456L195.27 805.696L216.51 795.837L226.369 817.077L141.408 856.512L131.549 835.272L152.789 825.413L142.93 804.173L68.59 838.679C62.9567 841.294 56.5155 841.564 50.6833 839.429C44.8512 837.295 40.1057 832.931 37.491 827.298L-21.6621 699.857C-27.1338 688.069 -22.0691 674.23 -10.2809 668.758L180.88 580.028ZM30.677 701.38L126.258 657.015L150.905 710.115L55.3241 754.48L30.677 701.38ZM136.878 652.085L179.358 632.368L189.217 653.608L146.736 673.325L136.878 652.085ZM194.146 664.228L218.793 717.328L176.313 737.046L151.666 683.945L194.146 664.228ZM60.2535 765.1L102.734 745.382L112.593 766.622L70.1124 786.34L60.2535 765.1ZM113.354 740.453L155.834 720.735L165.693 741.975L123.213 761.693L113.354 740.453Z" fill="#5590E0"/>
</g>
<g clip-path="url(#clip1_1:59)">
<path d="M658.78 181.44L671.882 134.557L601.558 114.903L588.456 161.786L658.78 181.44ZM674.066 126.743C676.139 127.322 677.896 128.701 678.952 130.576C680.008 132.451 680.275 134.668 679.696 136.741L666.594 183.624C666.015 185.696 664.636 187.453 662.761 188.509C660.886 189.565 658.669 189.833 656.596 189.254L629.248 181.611L627.064 189.424L634.878 191.608L632.694 199.422L601.439 190.687L603.623 182.873L611.437 185.057L613.62 177.243L586.272 169.6C584.2 169.021 582.442 167.642 581.386 165.767C580.33 163.892 580.063 161.675 580.642 159.602L593.744 112.72C594.956 108.383 599.405 105.877 603.742 107.089L674.066 126.743ZM607.188 124.901L642.35 134.728L636.891 154.262L601.729 144.435L607.188 124.901ZM646.257 135.819L661.885 140.187L659.701 148.001L644.074 143.633L646.257 135.819ZM658.609 151.908L653.15 171.442L637.522 167.075L642.982 147.54L658.609 151.908ZM600.637 148.342L616.265 152.71L614.081 160.524L598.453 156.156L600.637 148.342ZM620.171 153.802L635.799 158.169L633.615 165.983L617.988 161.615L620.171 153.802Z" fill="#5590E0"/>
</g>
<g clip-path="url(#clip2_1:59)">
<path d="M629.399 593.08L642.519 591.751L645.842 624.552L632.721 625.881L629.399 593.08Z" fill="#5590E0"/>
<path d="M599.836 562.937L612.956 561.608L619.601 627.21L606.481 628.539L599.836 562.937Z" fill="#5590E0"/>
<path d="M547.439 634.519C538.742 635.39 530.055 632.775 523.283 627.249C516.511 621.723 512.207 613.736 511.316 605.041L524.436 603.712C524.83 607.604 526.37 611.293 528.86 614.31C531.351 617.327 534.68 619.539 538.427 620.664C542.174 621.789 546.171 621.778 549.911 620.632C553.652 619.486 556.969 617.256 559.442 614.225C561.916 611.194 563.435 607.497 563.808 603.603C564.181 599.708 563.39 595.791 561.536 592.345C559.682 588.9 556.848 586.082 553.393 584.247C549.937 582.412 546.016 581.644 542.123 582.038L540.794 568.918C549.493 568.036 558.186 570.647 564.961 576.175C571.735 581.704 576.036 589.697 576.918 598.396C577.799 607.095 575.188 615.788 569.66 622.563C564.131 629.337 556.138 633.638 547.439 634.519Z" fill="#5590E0"/>
<path d="M643.014 465.778L485.57 481.727C482.092 482.082 478.896 483.804 476.686 486.513C474.475 489.222 473.43 492.697 473.778 496.176L489.727 653.62C490.083 657.099 491.804 660.294 494.513 662.504C497.222 664.715 500.697 665.761 504.176 665.412L661.62 649.463C665.098 649.106 668.292 647.384 670.502 644.676C672.713 641.967 673.759 638.493 673.412 635.014L657.464 477.57C657.108 474.091 655.386 470.896 652.677 468.686C649.969 466.475 646.493 465.43 643.014 465.778ZM648.995 524.82L557.152 534.123L552.501 488.202L644.343 478.899L648.995 524.82ZM539.38 489.531L544.032 535.452L491.55 540.768L486.899 494.847L539.38 489.531ZM502.847 652.291L492.879 553.889L650.324 537.94L660.304 636.342L502.847 652.291Z" fill="#5590E0"/>
</g>
<g clip-path="url(#clip3_1:59)">
<path d="M391.687 817.424C421.146 824.435 439.598 852.93 432.901 881.071C426.203 909.212 396.894 926.339 367.434 919.328C337.974 912.317 319.522 883.822 326.22 855.681C332.917 827.541 362.227 810.413 391.687 817.424ZM389.261 827.615C377.944 824.921 366.068 826.632 356.246 832.372C346.424 838.112 339.461 847.41 336.888 858.22C334.315 869.031 336.343 880.469 342.527 890.018C348.71 899.566 358.542 906.444 369.859 909.138C381.176 911.831 393.052 910.12 402.874 904.38C412.696 898.64 419.66 889.343 422.232 878.532C424.805 867.721 422.777 856.283 416.594 846.735C410.41 837.186 400.579 830.308 389.261 827.615ZM405.66 849.483C406.369 849.219 407.159 849.205 407.888 849.445C408.618 849.685 409.241 850.162 409.649 850.793C410.056 851.422 410.22 852.164 410.113 852.887C410.006 853.611 409.634 854.269 409.063 854.745C393.741 867.498 385.361 874.29 383.933 875.129C382.09 876.203 379.863 876.523 377.741 876.018C375.619 875.513 373.775 874.225 372.614 872.435C371.457 870.644 371.077 868.499 371.56 866.472C372.042 864.445 373.347 862.701 375.187 861.623C377.635 860.197 387.791 856.149 405.66 849.483ZM410.11 870.263C411.525 870.6 412.754 871.459 413.527 872.653C414.299 873.847 414.553 875.276 414.231 876.628C413.91 877.979 413.039 879.141 411.812 879.859C410.584 880.576 409.099 880.79 407.685 880.453C406.27 880.117 405.041 879.257 404.268 878.063C403.495 876.87 403.242 875.44 403.563 874.089C403.885 872.737 404.755 871.575 405.983 870.858C407.211 870.14 408.695 869.926 410.11 870.263ZM351.436 856.299C352.85 856.635 354.079 857.495 354.852 858.689C355.625 859.882 355.879 861.312 355.557 862.663C355.235 864.015 354.365 865.177 353.137 865.894C351.91 866.612 350.425 866.826 349.01 866.489C347.596 866.152 346.367 865.293 345.594 864.099C344.821 862.906 344.567 861.476 344.889 860.124C345.211 858.773 346.081 857.611 347.309 856.893C348.536 856.176 350.021 855.962 351.436 856.299ZM368.161 840.919C368.933 842.114 369.186 843.545 368.863 844.896C368.54 846.248 367.668 847.41 366.439 848.128C365.21 848.845 363.725 849.058 362.31 848.72C360.894 848.382 359.665 847.521 358.893 846.326C358.51 845.735 358.252 845.079 358.131 844.396C358.011 843.714 358.031 843.018 358.191 842.349C358.35 841.679 358.647 841.05 359.063 840.495C359.478 839.941 360.006 839.473 360.614 839.118C361.843 838.401 363.329 838.188 364.744 838.525C365.445 838.693 366.107 838.99 366.693 839.401C367.279 839.812 367.778 840.327 368.161 840.919ZM387.442 835.257C388.857 835.594 390.086 836.454 390.859 837.647C391.632 838.841 391.885 840.271 391.564 841.622C391.242 842.973 390.372 844.136 389.144 844.853C387.916 845.57 386.432 845.784 385.017 845.448C383.602 845.111 382.373 844.251 381.6 843.058C380.828 841.864 380.574 840.434 380.896 839.083C381.217 837.732 382.088 836.569 383.315 835.852C384.543 835.135 386.028 834.921 387.442 835.257Z" fill="#5590E0"/>
</g>
<g clip-path="url(#clip4_1:59)">
<path d="M157.27 200.613L177.408 208.544L157.581 258.888L137.443 250.957L157.27 200.613Z" fill="#5590E0"/>
<path d="M136.822 134.408L156.959 142.339L117.305 243.027L97.1679 235.096L136.822 134.408Z" fill="#5590E0"/>
<path d="M6.54896 199.408C-6.79188 194.135 -17.4969 183.787 -23.2178 170.632C-28.9388 157.477 -29.2087 142.59 -23.9682 129.237L-3.83059 137.168C-6.18342 143.142 -6.71183 149.68 -5.34901 155.954C-3.98619 162.229 -0.793362 167.958 3.82575 172.418C8.44485 176.878 14.2828 179.868 20.6012 181.01C26.9197 182.152 33.435 181.395 39.3231 178.835C45.2112 176.274 50.2078 172.025 53.6809 166.624C57.1541 161.224 58.9478 154.915 58.8353 148.495C58.7227 142.075 56.709 135.832 53.0488 130.557C49.3885 125.282 44.2461 121.21 38.2719 118.857L46.2026 98.7196C59.5546 103.978 70.2709 114.325 75.994 127.485C81.7171 140.644 81.9781 155.538 76.7197 168.89C71.4613 182.242 61.1142 192.959 47.9547 198.682C34.7951 204.405 19.901 204.666 6.54896 199.408Z" fill="#5590E0"/>
<path d="M272.887 25.1678L31.236 -70.0009C25.8947 -72.0983 19.9395 -71.9909 14.6773 -69.7024C9.41504 -67.4139 5.27571 -63.1311 3.16766 -57.7941L-92.001 183.857C-94.0984 189.198 -93.9911 195.153 -91.7025 200.416C-89.414 205.678 -85.1313 209.817 -79.7942 211.925L161.857 307.094C167.198 309.188 173.152 309.08 178.414 306.791C183.675 304.503 187.815 300.222 189.925 294.887L285.094 53.2361C287.191 47.8948 287.084 41.9396 284.795 36.6774C282.507 31.4152 278.224 27.2758 272.887 25.1678ZM237.199 115.787L96.2356 60.2718L123.993 -10.2097L264.956 45.3054L237.199 115.787ZM103.856 -18.1404L76.098 52.3411L-4.45229 20.6182L23.3052 -49.8633L103.856 -18.1404ZM-71.8635 191.788L-12.383 40.7558L229.268 135.924L169.808 286.964L-71.8635 191.788Z" fill="#5590E0"/>
</g>
<g clip-path="url(#clip5_1:59)">
<path d="M446.729 231.683C483.724 213.326 527.926 227.09 545.462 262.428C562.998 297.766 547.225 341.292 510.23 359.65C473.236 378.008 429.033 364.244 411.497 328.906C393.961 293.568 409.735 250.041 446.729 231.683ZM453.079 244.48C438.867 251.532 427.914 263.689 422.628 278.275C417.342 292.861 418.157 308.682 424.894 322.258C431.63 335.833 443.737 346.051 458.549 350.664C473.362 355.276 489.668 353.906 503.88 346.853C518.092 339.801 529.046 327.645 534.332 313.058C539.617 298.472 538.802 282.651 532.066 269.076C525.329 255.5 513.223 245.282 498.41 240.67C483.597 236.057 467.291 237.428 453.079 244.48ZM489.349 253.091C489.862 252.195 490.677 251.492 491.651 251.107C492.625 250.721 493.695 250.677 494.672 250.983C495.647 251.287 496.467 251.921 496.986 252.773C497.505 253.625 497.69 254.64 497.507 255.637C492.576 282.372 489.72 296.803 488.955 298.929C487.961 301.663 485.907 303.941 483.242 305.263C480.577 306.586 477.52 306.844 474.742 305.982C471.965 305.114 469.696 303.197 468.433 300.652C467.17 298.107 467.016 295.141 468.004 292.405C469.325 288.775 476.437 275.669 489.349 253.091ZM512.145 270.987C513.922 270.105 515.96 269.934 517.811 270.511C519.663 271.087 521.176 272.365 522.018 274.061C522.86 275.758 522.962 277.736 522.302 279.559C521.641 281.383 520.272 282.902 518.495 283.784C516.719 284.665 514.68 284.837 512.829 284.26C510.977 283.683 509.464 282.406 508.622 280.709C507.78 279.012 507.678 277.035 508.339 275.211C508.999 273.388 510.369 271.869 512.145 270.987ZM438.464 307.55C440.241 306.668 442.279 306.497 444.131 307.073C445.982 307.65 447.495 308.927 448.338 310.624C449.18 312.321 449.282 314.299 448.621 316.122C447.96 317.945 446.591 319.465 444.814 320.346C443.038 321.228 441 321.399 439.148 320.823C437.296 320.246 435.783 318.969 434.941 317.272C434.099 315.575 433.997 313.597 434.658 311.774C435.319 309.951 436.688 308.431 438.464 307.55ZM442.573 276.837C444.425 277.415 445.939 278.694 446.78 280.392C447.621 282.091 447.722 284.07 447.059 285.894C446.397 287.717 445.026 289.237 443.248 290.118C441.47 290.999 439.43 291.169 437.578 290.59C436.661 290.304 435.817 289.843 435.096 289.233C434.374 288.623 433.788 287.876 433.371 287.035C432.955 286.194 432.716 285.275 432.668 284.331C432.62 283.387 432.764 282.437 433.092 281.533C433.754 279.71 435.126 278.19 436.904 277.309C437.784 276.873 438.738 276.607 439.711 276.526C440.683 276.445 441.656 276.55 442.573 276.837ZM457.842 254.078C459.618 253.196 461.657 253.025 463.508 253.601C465.36 254.178 466.873 255.455 467.715 257.152C468.557 258.849 468.659 260.827 467.998 262.65C467.338 264.473 465.968 265.993 464.192 266.874C462.415 267.756 460.377 267.927 458.526 267.35C456.674 266.774 455.161 265.497 454.319 263.8C453.477 262.103 453.375 260.125 454.035 258.302C454.696 256.479 456.065 254.959 457.842 254.078Z" fill="#5590E0"/>
</g>
<defs>
<linearGradient id="paint0_linear_1:59" x1="720" y1="0" x2="720" y2="900" gradientUnits="userSpaceOnUse">
<stop stop-color="#3175D3"/>
<stop offset="1" stop-color="#5590E0"/>
</linearGradient>
<clipPath id="clip0_1:59">
<rect width="281" height="281" fill="white" transform="translate(-52 662.306) rotate(-24.8989)"/>
</clipPath>
<clipPath id="clip1_1:59">
<rect width="97.3587" height="97.3587" fill="white" transform="translate(594.205 96) rotate(15.6141)"/>
</clipPath>
<clipPath id="clip2_1:59">
<rect width="211" height="211" fill="white" transform="translate(458 471.264) rotate(-5.784)"/>
</clipPath>
<clipPath id="clip3_1:59">
<rect width="131.592" height="125.7" fill="white" transform="translate(330.103 792) rotate(13.3871)"/>
</clipPath>
<clipPath id="clip4_1:59">
<rect width="346.288" height="346.288" fill="white" transform="translate(-1.1084 -106) rotate(21.4959)"/>
</clipPath>
<clipPath id="clip5_1:59">
<rect width="179.463" height="171.427" fill="white" transform="translate(360 258.773) rotate(-26.392)"/>
</clipPath>
</defs>
</svg>
