<svg width="597" height="633" viewBox="0 0 597 633" fill="none" xmlns="http://www.w3.org/2000/svg">
<g clip-path="url(#clip0_2_2)">
<path d="M480.766 605.391H465.66L458.47 547.08H480.766V605.391Z" fill="#FFB6B6"/>
<path d="M488.74 631.584H477.906L475.972 621.349L471.019 631.584H442.286C440.908 631.584 439.567 631.144 438.457 630.327C437.348 629.51 436.529 628.36 436.119 627.044C435.709 625.728 435.73 624.316 436.179 623.013C436.628 621.71 437.482 620.585 438.615 619.802L461.561 603.943V593.595L485.697 595.037L488.74 631.584Z" fill="#2F2E41"/>
<path d="M356.592 604.329H341.485L334.295 546.018H356.592V604.329Z" fill="#FFB6B6"/>
<path d="M364.565 630.522H353.731L351.797 620.287L346.845 630.522H318.111C316.733 630.522 315.392 630.082 314.283 629.265C313.173 628.448 312.354 627.298 311.944 625.982C311.534 624.666 311.555 623.254 312.004 621.951C312.453 620.648 313.307 619.523 314.441 618.74L337.387 602.881V592.533L361.522 593.975L364.565 630.522Z" fill="#2F2E41"/>
<path d="M507.619 572.75C504.382 586.525 452.59 584.093 442.879 585.708C433.168 587.333 419.211 365.582 419.211 365.582C404.436 365.588 376.291 469.549 376.291 469.549C376.291 469.549 386.295 579.333 374.169 581.066C366.739 582.128 314.745 577.976 307.464 574.736C302.085 572.343 355.163 338.439 355.163 338.439L385.843 280.5L422.448 277.313H454.012L456.039 284.599C461.576 278.728 484.03 304.196 476.872 365.297C466.244 456.02 509.536 564.601 507.619 572.75Z" fill="#2F2E41"/>
<path d="M467.565 284.748C467.565 284.748 438.938 319.796 407.098 310.238C375.258 300.679 366.739 297.493 366.739 297.493C375.219 276.296 383.353 241.509 364.113 222.421C338.084 196.596 359.508 195.603 355.025 181.133L341.904 154.132L369.882 152.909L376.561 143.188C377.334 141.402 378.639 139.897 380.296 138.879C381.954 137.86 383.885 137.378 385.827 137.497L399.448 138.331C401.45 138.453 403.361 139.209 404.907 140.489C406.452 141.769 407.551 143.507 408.045 145.452L414.527 151.989L443.357 162.82L426.202 183.851L443.155 258.196C456.965 264.989 465.445 273.715 467.565 284.748Z" fill="#585858"/>
<path d="M519.064 335.053C519.837 333.86 520.339 332.511 520.535 331.103C520.73 329.695 520.615 328.261 520.197 326.902C519.779 325.543 519.068 324.292 518.115 323.238C517.162 322.183 515.989 321.351 514.679 320.799L482.53 238.473L465.918 248.139L501.593 326.598C500.812 328.861 500.889 331.332 501.807 333.542C502.725 335.753 504.422 337.549 506.576 338.591C508.729 339.634 511.19 339.849 513.492 339.197C515.794 338.545 517.776 337.07 519.064 335.053V335.053Z" fill="#FFB6B6"/>
<path d="M439.195 161.83C439.195 161.83 443.464 158.975 447.596 169.045C450.904 177.107 496.501 260.332 497.971 272.342C499.655 272.525 501.231 273.264 502.45 274.442C503.669 275.62 504.462 277.171 504.703 278.85L480.256 284.675C475.557 281.458 473.923 276.636 475.451 275.001L468.587 260.839L420.86 180.571L436.072 163.839L439.195 161.83Z" fill="#585858"/>
<path d="M223.783 86.9293C223.758 88.351 224.045 89.7608 224.623 91.0595C225.202 92.3581 226.058 93.5141 227.131 94.4459C228.204 95.3777 229.469 96.0627 230.835 96.4526C232.201 96.8426 233.637 96.9279 235.04 96.7028L305.846 149.542L314.833 132.545L243.079 84.8535C242.545 82.5201 241.174 80.4638 239.226 79.0744C237.278 77.685 234.888 77.0588 232.51 77.3147C230.131 77.5706 227.929 78.6907 226.321 80.4627C224.712 82.2347 223.809 84.5356 223.783 86.9293V86.9293Z" fill="#FFB6B6"/>
<path d="M383.14 191.637C383.14 191.637 381.027 196.319 372.196 189.962C365.127 184.872 282.434 138.39 274.837 128.977C273.311 129.713 271.583 129.921 269.926 129.566C268.268 129.212 266.776 128.315 265.684 127.019L283.349 109.132C289.038 109.374 292.974 112.601 292.541 114.797L305.853 123.181L388.791 166.026L384.728 188.279L383.14 191.637Z" fill="#585858"/>
<path d="M368.192 99.6281C368.192 116.831 376.792 134.337 393.983 134.337C411.174 134.337 434.892 121.877 429.556 95.1783C426.185 78.3095 416.51 68.4795 399.319 68.4795C391.064 68.4795 383.147 71.7612 377.309 77.6027C371.472 83.4442 368.192 91.367 368.192 99.6281Z" fill="#2F2E41"/>
<path d="M392.895 133.886C407.037 133.886 418.501 122.414 418.501 108.262C418.501 94.1107 407.037 82.6384 392.895 82.6384C378.753 82.6384 367.289 94.1107 367.289 108.262C367.289 122.414 378.753 133.886 392.895 133.886Z" fill="#FFB6B6"/>
<path d="M419.693 114.98C419.461 114.943 419.228 114.894 418.996 114.858C415.002 114.149 411.008 113.452 407.026 112.731L406.66 103.698L401.835 111.79C390.83 115.444 380.533 113.379 370.847 108.819C367.652 107.302 364.552 105.591 361.564 103.698C359.48 90.9745 364.737 80.9473 378.237 79.6673C378.656 79.6276 378.957 79.2763 379.324 79.0928C379.325 79.0928 379.327 79.0925 379.329 79.0919C379.33 79.0913 379.331 79.0904 379.333 79.0892C379.334 79.0881 379.335 79.0867 379.335 79.0852C379.336 79.0837 379.336 79.0821 379.336 79.0805C379.959 78.7872 380.594 78.5061 381.229 78.2494C386.202 76.3048 391.624 75.8123 396.865 76.8292C402.106 77.8462 406.951 80.3307 410.837 83.9942C418.654 91.4627 422.172 103.796 419.693 114.98Z" fill="#2F2E41"/>
<path d="M409.882 78.4441V78.4658C409.879 79.807 410.05 81.1429 410.39 82.44C410.445 82.6674 410.51 82.9056 410.585 83.1331V83.1439C411.311 85.4603 412.563 87.577 414.244 89.328C415.924 91.079 417.987 92.4168 420.27 93.2365C420.606 93.3665 420.952 93.4747 421.298 93.5722C422.028 93.7839 422.773 93.936 423.528 94.027C424.205 94.1231 424.889 94.1702 425.573 94.1678C426.108 94.1701 426.642 94.1448 427.174 94.092C428.42 93.9658 429.645 93.6857 430.821 93.2581C431.005 93.2046 431.186 93.1395 431.362 93.0632C431.451 93.0318 431.537 92.9956 431.622 92.9549C433.585 92.1326 435.361 90.9196 436.841 89.3896C438.321 87.8596 439.476 86.0445 440.234 84.0545C440.992 82.0645 441.338 79.9411 441.251 77.8132C441.163 75.6853 440.645 73.5973 439.727 71.676L439.716 71.6652C438.947 70.0532 437.903 68.5875 436.632 67.3336C433.797 64.5072 432.548 57.424 428.241 57.424C428.035 57.4204 427.829 57.4276 427.624 57.4456C424.735 57.5431 419.394 63.7817 417.121 65.2544C415.434 66.3214 413.97 67.7083 412.814 69.337C411.607 71.0124 410.746 72.912 410.282 74.9247C410.017 76.079 409.882 77.2596 409.882 78.4441Z" fill="#2F2E41"/>
<path d="M429.053 72.9765C431.49 75.8154 435.305 76.919 438.747 78.3964C444.821 81.063 450.154 85.1721 454.282 90.3674C458.411 95.5626 461.211 101.687 462.439 108.21C463.39 113.523 463.266 119.023 464.769 124.203C466.263 129.382 469.963 134.464 475.272 135.363C478.865 135.977 482.467 134.589 485.846 133.218C487.705 132.47 489.563 131.72 491.422 130.966C489.483 126.098 487.548 121.23 485.615 116.362C488.721 120.956 492.334 125.187 496.385 128.973C503.046 126.285 509.713 123.598 516.386 120.91C499.969 120.972 502.77 105.024 499.097 89.0225C497.078 80.2297 479.888 74.2759 476.517 65.9102C474.696 61.3727 471.613 57.4524 467.635 54.6131C463.657 51.7739 458.949 50.1346 454.069 49.8893C449.189 49.644 444.34 50.8029 440.098 53.2289C435.855 55.6549 432.396 59.2465 430.129 63.5785C426.759 64.9224 426.661 70.1731 429.053 72.9765Z" fill="#2F2E41"/>
<path d="M310.308 173.817H120.004L121.439 172.253C130.448 162.437 136.024 143.66 138.488 114.85C139.095 107.021 142.637 99.7116 148.404 94.387C154.171 89.0624 161.736 86.1165 169.583 86.14H260.877C268.715 86.1207 276.271 89.0628 282.035 94.3782C287.799 99.6937 291.346 106.99 291.966 114.81C294.157 139.973 299.668 158.259 309.309 172.358L310.308 173.817Z" fill="#E6E6E6"/>
<path d="M260.877 630.453H169.583C161.736 630.476 154.171 627.53 148.404 622.206C142.637 616.882 139.095 609.572 138.488 601.744C136.024 572.933 130.448 480.873 121.439 471.056L120.004 469.493H310.308L309.309 470.952C299.668 485.051 294.157 576.62 291.966 601.782C291.346 609.601 287.799 616.898 282.036 622.214C276.272 627.529 268.715 630.472 260.877 630.453Z" fill="#E6E6E6"/>
<path d="M353.279 234.444C351.931 234.45 350.61 234.825 349.46 235.529C348.533 216.626 340.377 198.804 326.681 185.753C312.984 172.702 294.797 165.423 275.884 165.422H153.849C134.311 165.422 115.574 173.189 101.759 187.014C87.9435 200.839 80.1822 219.59 80.1822 239.141V406.967C80.1822 416.648 82.0876 426.234 85.7897 435.178C89.4918 444.122 94.9181 452.248 101.759 459.094C108.599 465.939 116.72 471.369 125.658 475.074C134.596 478.779 144.175 480.686 153.849 480.686H275.884C285.558 480.686 295.138 478.779 304.075 475.074C313.013 471.369 321.134 465.939 327.975 459.094C334.815 452.248 340.242 444.122 343.944 435.178C347.646 426.234 349.551 416.648 349.551 406.967V289.373C350.68 290.044 351.967 290.401 353.279 290.408C355.257 290.408 357.154 289.622 358.552 288.223C359.95 286.823 360.736 284.925 360.736 282.946V241.906C360.736 240.926 360.543 239.956 360.168 239.051C359.794 238.145 359.244 237.323 358.552 236.63C357.86 235.937 357.038 235.387 356.133 235.012C355.228 234.637 354.259 234.444 353.279 234.444Z" fill="#3F3D56"/>
<path d="M337.372 230.04C337.33 229.095 337.256 228.161 337.16 227.226C335.795 213.622 329.433 201.009 319.305 191.832C309.177 182.654 296.006 177.566 282.343 177.553H148.33C134.666 177.564 121.494 182.652 111.366 191.83C101.238 201.007 94.8755 213.621 93.5124 227.226C93.4169 228.161 93.3426 229.095 93.3001 230.04C93.2577 230.922 93.2365 231.803 93.2365 232.685V411.559C93.2506 426.177 99.0595 440.192 109.388 450.528C119.717 460.864 133.722 466.677 148.33 466.692H282.343C296.95 466.676 310.954 460.862 321.282 450.526C331.611 440.19 337.42 426.176 337.436 411.559V232.685C337.436 231.803 337.415 230.922 337.372 230.04Z" fill="white"/>
<path d="M337.436 391.487V397.817L336.587 396.096L314.968 352.498L314.946 352.487L254.207 230.041V230.03L252.806 227.226V227.205L228.183 177.553H231.335L255.947 227.205L255.969 227.226L257.359 230.03V230.041L316.549 349.375V349.386L317.95 352.19V352.211L337.436 391.487Z" fill="#3F3D56"/>
<path d="M346.574 228.458L92.6209 230.04V227.226L345.513 226.334C346.277 227.258 345.852 227.513 346.574 228.458Z" fill="#3F3D56"/>
<path d="M337.977 398.911H93.2361V396.096H337.436V397.817L337.977 398.911Z" fill="#3F3D56"/>
<path d="M268.027 240.662C261.956 236.384 255.103 233.344 247.858 231.716C240.613 230.088 233.119 229.904 225.803 231.175C218.487 232.445 211.493 235.145 205.22 239.121C198.947 243.096 193.518 248.269 189.242 254.345C171.262 279.894 153.22 346.892 165.956 385.704C203.943 345.55 262.303 341.378 281.7 319.503C302.426 296.129 293.559 258.655 268.027 240.662Z" fill="#585858"/>
<path d="M234.702 298.518C244.886 298.518 253.142 290.256 253.142 280.064C253.142 269.873 244.886 261.611 234.702 261.611C224.518 261.611 216.262 269.873 216.262 280.064C216.262 290.256 224.518 298.518 234.702 298.518Z" fill="white"/>
<path d="M150.367 405.801C157.038 405.801 162.445 400.389 162.445 393.714C162.445 387.039 157.038 381.628 150.367 381.628C143.697 381.628 138.289 387.039 138.289 393.714C138.289 400.389 143.697 405.801 150.367 405.801Z" fill="#585858"/>
<path opacity="0.2" d="M254.431 275.806C256.897 280.033 257.584 285.066 256.341 289.8C255.099 294.533 252.028 298.579 247.805 301.046C243.581 303.514 238.551 304.202 233.821 302.958C229.091 301.715 225.048 298.642 222.583 294.415C225.874 297.305 230.086 298.928 234.464 298.994C238.842 299.06 243.1 297.565 246.478 294.776C249.855 291.987 252.129 288.086 252.895 283.772C253.661 279.458 252.867 275.012 250.657 271.23C252.153 272.541 253.428 274.087 254.431 275.806Z" fill="#231F20"/>
<path opacity="0.2" d="M281.735 319.59C262.338 341.465 203.978 345.637 165.991 385.791C164.805 382.119 163.892 378.364 163.26 374.557C201.229 338.053 256.34 333.44 275.081 312.305C291.854 293.389 289.243 265.24 274.105 245.653C294.866 264.912 300.728 298.17 281.735 319.59Z" fill="#231F20"/>
<path d="M57.355 630.906C57.3545 631.072 57.3868 631.237 57.4501 631.39C57.5134 631.544 57.6064 631.683 57.7238 631.801C57.8412 631.918 57.9806 632.011 58.1341 632.075C58.2876 632.138 58.452 632.17 58.618 632.17H576.851C577.186 632.17 577.507 632.037 577.744 631.8C577.981 631.563 578.114 631.241 578.114 630.906C578.114 630.571 577.981 630.249 577.744 630.012C577.507 629.775 577.186 629.642 576.851 629.642H58.618C58.452 629.642 58.2876 629.674 58.1341 629.737C57.9806 629.801 57.8412 629.894 57.7238 630.011C57.6064 630.129 57.5134 630.268 57.4501 630.422C57.3868 630.575 57.3545 630.74 57.355 630.906Z" fill="#CCCCCC"/>
<path d="M538.532 371.272C542.662 369.672 545.109 366.044 543.997 363.168C542.885 360.293 538.634 359.259 534.504 360.859C530.373 362.459 527.926 366.087 529.039 368.963C530.151 371.838 534.401 372.872 538.532 371.272Z" fill="#E6E6E6"/>
<path d="M590.545 364.593C594.676 362.993 597.123 359.365 596.01 356.489C594.898 353.614 590.648 352.58 586.517 354.18C582.386 355.78 579.939 359.408 581.052 362.284C582.164 365.16 586.414 366.193 590.545 364.593Z" fill="#E6E6E6"/>
<path d="M534.021 415.676C538.152 414.075 540.599 410.447 539.486 407.572C538.374 404.696 534.124 403.662 529.993 405.262C525.862 406.862 523.416 410.491 524.528 413.366C525.64 416.242 529.891 417.276 534.021 415.676Z" fill="#E6E6E6"/>
<path d="M518.976 435.262C520.871 434.813 521.884 432.239 521.239 429.513C520.595 426.787 518.536 424.941 516.641 425.39C514.746 425.839 513.732 428.413 514.377 431.139C515.022 433.865 517.081 435.711 518.976 435.262Z" fill="#E6E6E6"/>
<path d="M518.666 468.423C520.561 467.974 521.575 465.4 520.93 462.674C520.285 459.948 518.226 458.102 516.331 458.551C514.436 459 513.423 461.574 514.067 464.3C514.712 467.026 516.771 468.872 518.666 468.423Z" fill="#E6E6E6"/>
<path d="M564.313 399.739C566.208 399.29 567.221 396.717 566.576 393.991C565.932 391.265 563.873 389.419 561.978 389.867C560.083 390.316 559.069 392.89 559.714 395.616C560.359 398.342 562.418 400.188 564.313 399.739Z" fill="#E6E6E6"/>
<path d="M536.921 393.083C538.816 392.634 539.829 390.06 539.185 387.334C538.54 384.608 536.481 382.762 534.586 383.211C532.691 383.66 531.677 386.234 532.322 388.96C532.967 391.686 535.026 393.532 536.921 393.083Z" fill="#E6E6E6"/>
<path d="M565.954 362.547C567.849 362.099 568.863 359.525 568.218 356.799C567.573 354.073 565.514 352.227 563.619 352.676C561.724 353.125 560.711 355.698 561.355 358.424C562 361.15 564.059 362.996 565.954 362.547Z" fill="#E6E6E6"/>
<path d="M16.0536 506.534C18.9362 505.444 20.0043 501.2 18.4392 497.053C16.8742 492.906 13.2688 490.428 10.3862 491.518C7.50369 492.607 6.43562 496.852 8.00063 500.998C9.56564 505.145 13.1711 507.623 16.0536 506.534Z" fill="#E6E6E6"/>
<path d="M9.80925 454.435C12.6918 453.346 13.7599 449.101 12.1949 444.955C10.6299 440.808 7.0244 438.33 4.14186 439.419C1.25931 440.509 0.191231 444.753 1.75624 448.9C3.32125 453.047 6.9267 455.525 9.80925 454.435Z" fill="#E6E6E6"/>
<path d="M60.3871 511.412C63.2696 510.322 64.3377 506.078 62.7727 501.931C61.2077 497.785 57.6022 495.306 54.7197 496.396C51.8371 497.485 50.7691 501.73 52.3341 505.876C53.8991 510.023 57.5045 512.501 60.3871 511.412Z" fill="#E6E6E6"/>
<path d="M78.0633 521.716C80.7926 521.093 82.6541 519.048 82.2212 517.148C81.7882 515.248 79.2247 514.213 76.4954 514.835C73.7661 515.458 71.9046 517.503 72.3375 519.403C72.7705 521.303 75.334 522.339 78.0633 521.716Z" fill="#E6E6E6"/>
<path d="M111.197 522.298C113.926 521.675 115.788 519.63 115.355 517.73C114.922 515.83 112.358 514.794 109.629 515.417C106.9 516.04 105.038 518.085 105.471 519.985C105.904 521.885 108.468 522.921 111.197 522.298Z" fill="#E6E6E6"/>
<path d="M42.939 476.057C45.6683 475.434 47.5298 473.389 47.0969 471.489C46.6639 469.589 44.1004 468.553 41.3711 469.176C38.6419 469.799 36.7803 471.844 37.2133 473.744C37.6462 475.644 40.2097 476.679 42.939 476.057Z" fill="#E6E6E6"/>
<path d="M36.0627 503.412C38.792 502.789 40.6535 500.744 40.2205 498.844C39.7876 496.944 37.2241 495.909 34.4948 496.532C31.7655 497.154 29.904 499.199 30.3369 501.099C30.7699 502.999 33.3334 504.035 36.0627 503.412Z" fill="#E6E6E6"/>
<path d="M5.78827 474.109C8.51756 473.486 10.3791 471.441 9.94616 469.541C9.5132 467.641 6.94967 466.605 4.22039 467.228C1.4911 467.851 -0.370446 469.896 0.0625146 471.796C0.495475 473.696 3.05898 474.731 5.78827 474.109Z" fill="#E6E6E6"/>
<path d="M103.39 18.6638C107.52 17.0637 109.967 13.4354 108.855 10.5599C107.742 7.68434 103.492 6.65041 99.3614 8.25052C95.2308 9.85063 92.7839 13.4789 93.8963 16.3544C95.0086 19.2299 99.2589 20.2639 103.39 18.6638Z" fill="#E6E6E6"/>
<path d="M155.398 11.9874C159.529 10.3873 161.976 6.75904 160.863 3.8835C159.751 1.00796 155.501 -0.0259942 151.37 1.57412C147.239 3.17423 144.792 6.80246 145.905 9.678C147.017 12.5535 151.267 13.5875 155.398 11.9874Z" fill="#E6E6E6"/>
<path d="M98.879 63.0671C103.01 61.467 105.457 57.8387 104.344 54.9632C103.232 52.0877 98.9816 51.0537 94.8509 52.6538C90.7202 54.2539 88.2734 57.8822 89.3857 60.7577C90.498 63.6333 94.7483 64.6672 98.879 63.0671Z" fill="#E6E6E6"/>
<path d="M83.8333 82.6537C85.7284 82.2048 86.7419 79.6311 86.0971 76.9051C85.4523 74.1791 83.3934 72.333 81.4984 72.7819C79.6034 73.2307 78.5899 75.8045 79.2347 78.5305C79.8794 81.2565 81.9383 83.1025 83.8333 82.6537Z" fill="#E6E6E6"/>
<path d="M83.5238 115.814C85.4188 115.365 86.4324 112.792 85.7876 110.066C85.1428 107.34 83.0839 105.494 81.1889 105.943C79.2939 106.391 78.2804 108.965 78.9251 111.691C79.5699 114.417 81.6288 116.263 83.5238 115.814Z" fill="#E6E6E6"/>
<path d="M129.17 47.1308C131.065 46.682 132.079 44.1082 131.434 41.3822C130.789 38.6562 128.73 36.8102 126.835 37.2591C124.94 37.7079 123.927 40.2816 124.572 43.0077C125.216 45.7337 127.275 47.5797 129.17 47.1308Z" fill="#E6E6E6"/>
<path d="M101.779 40.4745C103.674 40.0256 104.687 37.4519 104.042 34.7259C103.398 31.9999 101.339 30.1538 99.4438 30.6027C97.5488 31.0515 96.5353 33.6253 97.18 36.3513C97.8248 39.0773 99.8837 40.9233 101.779 40.4745Z" fill="#E6E6E6"/>
<path d="M130.812 9.93906C132.707 9.49021 133.72 6.91647 133.076 4.19046C132.431 1.46444 130.372 -0.381562 128.477 0.0672888C126.582 0.51614 125.568 3.08988 126.213 5.8159C126.858 8.54191 128.917 10.3879 130.812 9.93906Z" fill="#E6E6E6"/>
<path d="M211.786 459.99C226.44 459.99 238.319 448.102 238.319 433.438C238.319 418.774 226.44 406.886 211.786 406.886C197.132 406.886 185.253 418.774 185.253 433.438C185.253 448.102 197.132 459.99 211.786 459.99Z" fill="#E6E6E6"/>
<path d="M150.229 448.307C158.436 448.307 165.088 441.65 165.088 433.438C165.088 425.226 158.436 418.569 150.229 418.569C142.023 418.569 135.371 425.226 135.371 433.438C135.371 441.65 142.023 448.307 150.229 448.307Z" fill="#E6E6E6"/>
<path d="M273.343 448.307C281.549 448.307 288.201 441.65 288.201 433.438C288.201 425.226 281.549 418.569 273.343 418.569C265.137 418.569 258.484 425.226 258.484 433.438C258.484 441.65 265.137 448.307 273.343 448.307Z" fill="#E6E6E6"/>
<path d="M168.192 279.002H93.2362V281.126H168.192V279.002Z" fill="#3F3D56"/>
</g>
<defs>
<clipPath id="clip0_2_2">
<rect width="596.274" height="632.17" fill="white"/>
</clipPath>
</defs>
</svg>
