<?xml version="1.0" encoding="UTF-8"?>
<svg xmlns="http://www.w3.org/2000/svg" xmlns:xlink="http://www.w3.org/1999/xlink" width="648px" height="632px" viewBox="0 0 596 632" version="1.1">
<defs>
<filter id="alpha" filterUnits="objectBoundingBox" x="0%" y="0%" width="100%" height="100%">
  <feColorMatrix type="matrix" in="SourceGraphic" values="0 0 0 0 1 0 0 0 0 1 0 0 0 0 1 0 0 0 1 0"/>
</filter>
<mask id="mask0">
  <g filter="url(#alpha)">
<rect x="0" y="0" width="596" height="632" style="fill:rgb(0%,0%,0%);fill-opacity:0.2;stroke:none;"/>
  </g>
</mask>
<clipPath id="clip1">
  <rect x="0" y="0" width="596" height="632"/>
</clipPath>
<g id="surface5" clip-path="url(#clip1)">
<path style=" stroke:none;fill-rule:nonzero;fill:rgb(13.72549%,12.156863%,12.54902%);fill-opacity:1;" d="M 254.234375 275.835938 C 259.363281 284.636719 256.398438 295.9375 247.613281 301.078125 C 238.824219 306.21875 227.539062 303.246094 222.410156 294.445312 C 229.203125 300.414062 239.316406 300.566406 246.285156 294.804688 C 253.257812 289.046875 255.023438 279.070312 250.460938 271.257812 C 251.957031 272.570312 253.230469 274.117188 254.234375 275.835938 Z M 254.234375 275.835938 "/>
</g>
<mask id="mask1">
  <g filter="url(#alpha)">
<rect x="0" y="0" width="596" height="632" style="fill:rgb(0%,0%,0%);fill-opacity:0.2;stroke:none;"/>
  </g>
</mask>
<clipPath id="clip2">
  <rect x="0" y="0" width="596" height="632"/>
</clipPath>
<g id="surface8" clip-path="url(#clip2)">
<path style=" stroke:none;fill-rule:nonzero;fill:rgb(13.72549%,12.156863%,12.54902%);fill-opacity:1;" d="M 281.515625 319.625 C 262.132812 341.5 203.820312 345.671875 165.863281 385.832031 C 164.675781 382.160156 163.765625 378.402344 163.132812 374.597656 C 201.074219 338.089844 256.140625 333.476562 274.867188 312.339844 C 291.628906 293.417969 289.019531 265.265625 273.890625 245.679688 C 294.636719 264.9375 300.496094 298.199219 281.515625 319.625 Z M 281.515625 319.625 "/>
</g>
</defs>
<g id="surface1">
<path style=" stroke:none;fill-rule:nonzero;fill:rgb(100%,71.372549%,71.372549%);fill-opacity:1;" d="M 480.394531 605.453125 L 465.296875 605.453125 L 458.113281 547.136719 L 480.394531 547.136719 Z M 480.394531 605.453125 "/>
<path style=" stroke:none;fill-rule:nonzero;fill:rgb(18.431373%,18.039216%,25.490196%);fill-opacity:1;" d="M 488.359375 631.652344 L 477.535156 631.652344 L 475.601562 621.414062 L 470.652344 631.652344 L 441.941406 631.652344 C 439.117188 631.652344 436.621094 629.8125 435.78125 627.109375 C 434.9375 624.410156 435.949219 621.472656 438.273438 619.867188 L 461.203125 604.007812 L 461.203125 593.65625 L 485.320312 595.097656 Z M 488.359375 631.652344 "/>
<path style=" stroke:none;fill-rule:nonzero;fill:rgb(100%,71.372549%,71.372549%);fill-opacity:1;" d="M 356.316406 604.394531 L 341.21875 604.394531 L 334.035156 546.074219 L 356.316406 546.074219 Z M 356.316406 604.394531 "/>
<path style=" stroke:none;fill-rule:nonzero;fill:rgb(18.431373%,18.039216%,25.490196%);fill-opacity:1;" d="M 364.28125 630.589844 L 353.457031 630.589844 L 351.523438 620.351562 L 346.574219 630.589844 L 317.863281 630.589844 C 315.039062 630.589844 312.542969 628.75 311.703125 626.046875 C 310.859375 623.347656 311.871094 620.410156 314.195312 618.804688 L 337.125 602.945312 L 337.125 592.59375 L 361.242188 594.035156 Z M 364.28125 630.589844 "/>
<path style=" stroke:none;fill-rule:nonzero;fill:rgb(18.431373%,18.039216%,25.490196%);fill-opacity:1;" d="M 507.226562 572.808594 C 503.992188 586.585938 452.238281 584.15625 442.535156 585.769531 C 432.832031 587.394531 418.886719 365.621094 418.886719 365.621094 C 404.121094 365.625 376 469.597656 376 469.597656 C 376 469.597656 385.996094 579.394531 373.878906 581.128906 C 366.453125 582.1875 314.5 578.035156 307.226562 574.796875 C 301.851562 572.402344 354.886719 338.476562 354.886719 338.476562 L 385.542969 280.527344 L 422.121094 277.34375 L 453.660156 277.34375 L 455.683594 284.628906 C 461.21875 278.757812 483.65625 304.226562 476.503906 365.335938 C 465.882812 456.066406 509.140625 564.660156 507.226562 572.808594 Z M 507.226562 572.808594 "/>
<path style=" stroke:none;fill-rule:nonzero;fill:rgb(34.509804%,34.509804%,34.509804%);fill-opacity:1;" d="M 467.203125 284.777344 C 467.203125 284.777344 438.597656 319.828125 406.78125 310.269531 C 374.96875 300.710938 366.453125 297.523438 366.453125 297.523438 C 374.925781 276.324219 383.054688 241.535156 363.832031 222.445312 C 337.820312 196.617188 359.230469 195.625 354.75 181.152344 L 341.636719 154.148438 L 369.59375 152.925781 L 376.269531 143.203125 C 377.851562 139.542969 381.550781 137.265625 385.527344 137.511719 L 399.136719 138.34375 C 403.242188 138.597656 406.714844 141.476562 407.726562 145.46875 L 414.207031 152.003906 L 443.011719 162.835938 L 425.871094 183.871094 L 442.808594 258.222656 C 456.609375 265.015625 465.082031 273.742188 467.203125 284.777344 Z M 467.203125 284.777344 "/>
<path style=" stroke:none;fill-rule:nonzero;fill:rgb(100%,71.372549%,71.372549%);fill-opacity:1;" d="M 518.660156 335.089844 C 520.222656 332.671875 520.636719 329.6875 519.792969 326.9375 C 518.949219 324.183594 516.929688 321.949219 514.28125 320.832031 L 482.15625 238.5 L 465.554688 248.164062 L 501.203125 326.632812 C 499.589844 331.316406 501.726562 336.46875 506.183594 338.625 C 510.636719 340.785156 515.996094 339.265625 518.660156 335.089844 Z M 518.660156 335.089844 "/>
<path style=" stroke:none;fill-rule:nonzero;fill:rgb(34.509804%,34.509804%,34.509804%);fill-opacity:1;" d="M 438.855469 161.847656 C 438.855469 161.847656 443.121094 158.992188 447.25 169.0625 C 450.554688 177.125 496.117188 260.359375 497.582031 272.371094 C 501.046875 272.746094 503.816406 275.425781 504.3125 278.878906 L 479.882812 284.707031 C 475.1875 281.488281 473.554688 276.664062 475.082031 275.03125 L 468.222656 260.867188 L 420.53125 180.589844 L 435.734375 163.855469 Z M 438.855469 161.847656 "/>
<path style=" stroke:none;fill-rule:nonzero;fill:rgb(100%,71.372549%,71.372549%);fill-opacity:1;" d="M 223.609375 86.9375 C 223.558594 89.816406 224.785156 92.570312 226.953125 94.457031 C 229.125 96.34375 232.019531 97.167969 234.855469 96.714844 L 305.609375 149.558594 L 314.589844 132.558594 L 242.890625 84.863281 C 241.785156 80.03125 237.246094 76.792969 232.328125 77.324219 C 227.410156 77.851562 223.664062 81.984375 223.609375 86.9375 Z M 223.609375 86.9375 "/>
<path style=" stroke:none;fill-rule:nonzero;fill:rgb(34.509804%,34.509804%,34.509804%);fill-opacity:1;" d="M 382.84375 191.65625 C 382.84375 191.65625 380.730469 196.339844 371.90625 189.980469 C 364.84375 184.890625 282.214844 138.40625 274.625 128.992188 C 271.484375 130.503906 267.722656 129.699219 265.476562 127.03125 L 283.128906 109.144531 C 288.8125 109.386719 292.746094 112.613281 292.3125 114.808594 L 305.617188 123.195312 L 388.488281 166.042969 L 384.429688 188.296875 Z M 382.84375 191.65625 "/>
<path style=" stroke:none;fill-rule:nonzero;fill:rgb(18.431373%,18.039216%,25.490196%);fill-opacity:1;" d="M 367.90625 99.636719 C 367.90625 116.84375 376.5 134.351562 393.675781 134.351562 C 410.855469 134.351562 434.554688 121.890625 429.222656 95.1875 C 425.855469 78.316406 416.1875 68.488281 399.007812 68.488281 C 381.832031 68.488281 367.90625 82.433594 367.90625 99.636719 Z M 367.90625 99.636719 "/>
<path style=" stroke:none;fill-rule:nonzero;fill:rgb(100%,71.372549%,71.372549%);fill-opacity:1;" d="M 418.175781 108.273438 C 418.175781 122.425781 406.71875 133.898438 392.589844 133.898438 C 378.460938 133.898438 367.003906 122.425781 367.003906 108.273438 C 367.003906 94.121094 378.460938 82.648438 392.589844 82.648438 C 406.71875 82.648438 418.175781 94.121094 418.175781 108.273438 Z M 418.175781 108.273438 "/>
<path style=" stroke:none;fill-rule:nonzero;fill:rgb(18.431373%,18.039216%,25.490196%);fill-opacity:1;" d="M 419.367188 114.992188 C 419.132812 114.957031 418.902344 114.90625 418.671875 114.871094 C 414.679688 114.160156 410.6875 113.464844 406.710938 112.742188 L 406.34375 103.707031 L 401.523438 111.800781 C 390.527344 115.457031 380.238281 113.390625 370.558594 108.832031 C 367.367188 107.3125 364.269531 105.601562 361.28125 103.707031 C 359.199219 90.984375 364.453125 80.957031 377.941406 79.675781 C 378.363281 79.636719 378.664062 79.285156 379.027344 79.101562 C 379.03125 79.101562 379.035156 79.101562 379.039062 79.097656 C 379.039062 79.09375 379.042969 79.09375 379.042969 79.089844 C 379.664062 78.796875 380.296875 78.515625 380.933594 78.257812 C 391.074219 74.289062 402.59375 76.523438 410.519531 84.003906 C 418.328125 91.472656 421.84375 103.804688 419.367188 114.992188 Z M 419.367188 114.992188 "/>
<path style=" stroke:none;fill-rule:nonzero;fill:rgb(18.431373%,18.039216%,25.490196%);fill-opacity:1;" d="M 409.5625 78.453125 L 409.5625 78.472656 C 409.558594 79.816406 409.730469 81.152344 410.070312 82.449219 C 410.125 82.675781 410.191406 82.914062 410.265625 83.140625 L 410.265625 83.152344 C 411.738281 87.847656 415.320312 91.585938 419.945312 93.246094 C 420.277344 93.375 420.625 93.484375 420.972656 93.582031 C 421.699219 93.792969 422.445312 93.945312 423.199219 94.035156 C 423.875 94.132812 424.558594 94.179688 425.242188 94.175781 C 425.777344 94.179688 426.3125 94.15625 426.84375 94.101562 C 428.085938 93.976562 429.3125 93.695312 430.488281 93.269531 C 430.671875 93.214844 430.851562 93.148438 431.027344 93.074219 C 431.117188 93.042969 431.203125 93.003906 431.285156 92.964844 C 435.25 91.304688 438.359375 88.085938 439.890625 84.0625 C 441.421875 80.042969 441.238281 75.566406 439.386719 71.683594 L 439.375 71.671875 C 438.605469 70.0625 437.5625 68.59375 436.292969 67.339844 C 433.460938 64.515625 432.210938 57.429688 427.90625 57.429688 C 427.703125 57.425781 427.496094 57.433594 427.292969 57.453125 C 424.40625 57.550781 419.066406 63.789062 416.796875 65.261719 C 415.109375 66.328125 413.648438 67.714844 412.492188 69.34375 C 411.289062 71.019531 410.425781 72.917969 409.964844 74.933594 C 409.699219 76.085938 409.5625 77.269531 409.5625 78.453125 Z M 409.5625 78.453125 "/>
<path style=" stroke:none;fill-rule:nonzero;fill:rgb(18.431373%,18.039216%,25.490196%);fill-opacity:1;" d="M 428.71875 72.984375 C 431.15625 75.824219 434.96875 76.925781 438.40625 78.40625 C 450.730469 83.820312 459.585938 94.976562 462.078125 108.222656 C 463.03125 113.535156 462.90625 119.035156 464.40625 124.214844 C 465.902344 129.394531 469.597656 134.476562 474.902344 135.378906 C 478.492188 135.992188 482.09375 134.601562 485.46875 133.230469 C 487.324219 132.484375 489.183594 131.734375 491.039062 130.980469 C 489.101562 126.113281 487.167969 121.242188 485.238281 116.375 C 488.339844 120.96875 491.953125 125.199219 496 128.988281 C 502.65625 126.296875 509.316406 123.609375 515.984375 120.921875 C 499.582031 120.984375 502.378906 105.035156 498.710938 89.03125 C 496.691406 80.238281 479.515625 74.285156 476.148438 65.917969 C 472.429688 56.652344 463.671875 50.394531 453.714844 49.894531 C 443.757812 49.394531 434.417969 54.738281 429.796875 63.585938 C 426.425781 64.929688 426.328125 70.179688 428.71875 72.984375 Z M 428.71875 72.984375 "/>
<path style=" stroke:none;fill-rule:nonzero;fill:rgb(90.196078%,90.196078%,90.196078%);fill-opacity:1;" d="M 310.066406 173.835938 L 119.910156 173.835938 L 121.34375 172.269531 C 130.347656 162.453125 135.917969 143.675781 138.378906 114.863281 C 139.636719 98.621094 153.1875 86.101562 169.449219 86.148438 L 260.675781 86.148438 C 276.917969 86.109375 290.453125 98.601562 291.738281 114.820312 C 293.929688 139.988281 299.433594 158.277344 309.070312 172.375 Z M 310.066406 173.835938 "/>
<path style=" stroke:none;fill-rule:nonzero;fill:rgb(90.196078%,90.196078%,90.196078%);fill-opacity:1;" d="M 260.675781 630.519531 L 169.449219 630.519531 C 153.1875 630.566406 139.640625 618.046875 138.378906 601.808594 C 135.917969 572.992188 130.347656 480.921875 121.34375 471.105469 L 119.910156 469.542969 L 310.066406 469.542969 L 309.070312 471 C 299.433594 485.101562 293.929688 576.679688 291.738281 601.84375 C 290.453125 618.066406 276.917969 630.558594 260.675781 630.519531 Z M 260.675781 630.519531 "/>
<path style=" stroke:none;fill-rule:nonzero;fill:rgb(24.705882%,23.921569%,33.72549%);fill-opacity:1;" d="M 353.003906 234.46875 C 351.65625 234.476562 350.339844 234.851562 349.1875 235.554688 C 347.265625 196.289062 314.921875 165.441406 275.671875 165.441406 L 153.730469 165.441406 C 113.074219 165.441406 80.121094 198.449219 80.121094 239.167969 L 80.121094 407.007812 C 80.121094 447.726562 113.074219 480.734375 153.730469 480.734375 L 275.671875 480.734375 C 316.324219 480.734375 349.28125 447.726562 349.28125 407.007812 L 349.28125 289.402344 C 350.40625 290.074219 351.695312 290.433594 353.003906 290.4375 C 357.121094 290.4375 360.457031 287.097656 360.457031 282.976562 L 360.457031 241.933594 C 360.457031 237.808594 357.121094 234.46875 353.003906 234.46875 Z M 353.003906 234.46875 "/>
<path style=" stroke:none;fill-rule:nonzero;fill:rgb(100%,100%,100%);fill-opacity:1;" d="M 337.109375 230.066406 C 337.066406 229.121094 336.992188 228.183594 336.898438 227.25 C 334.074219 199.066406 310.40625 177.597656 282.125 177.570312 L 148.214844 177.570312 C 119.933594 177.59375 96.261719 199.0625 93.441406 227.25 C 93.34375 228.183594 93.269531 229.121094 93.226562 230.066406 C 93.183594 230.945312 93.164062 231.828125 93.164062 232.710938 L 93.164062 411.601562 C 93.195312 442.042969 117.824219 466.710938 148.214844 466.742188 L 282.125 466.742188 C 312.511719 466.707031 337.140625 442.039062 337.175781 411.601562 L 337.175781 232.710938 C 337.175781 231.828125 337.152344 230.945312 337.109375 230.066406 Z M 337.109375 230.066406 "/>
<path style=" stroke:none;fill-rule:nonzero;fill:rgb(24.705882%,23.921569%,33.72549%);fill-opacity:1;" d="M 337.171875 391.527344 L 337.171875 397.859375 L 336.324219 396.136719 L 314.722656 352.535156 L 314.703125 352.523438 L 254.007812 230.066406 L 254.007812 230.054688 L 252.609375 227.25 L 252.609375 227.230469 L 228.007812 177.570312 L 231.15625 177.570312 L 255.75 227.230469 L 255.769531 227.25 L 257.160156 230.054688 L 257.160156 230.066406 L 316.304688 349.410156 L 316.304688 349.421875 L 317.703125 352.226562 L 317.703125 352.25 Z M 337.171875 391.527344 "/>
<path style=" stroke:none;fill-rule:nonzero;fill:rgb(24.705882%,23.921569%,33.72549%);fill-opacity:1;" d="M 346.304688 228.480469 L 92.550781 230.066406 L 92.550781 227.25 L 345.246094 226.359375 C 346.007812 227.28125 345.582031 227.535156 346.304688 228.480469 Z M 346.304688 228.480469 "/>
<path style=" stroke:none;fill-rule:nonzero;fill:rgb(24.705882%,23.921569%,33.72549%);fill-opacity:1;" d="M 337.714844 398.953125 L 93.164062 398.953125 L 93.164062 396.136719 L 337.171875 396.136719 L 337.171875 397.859375 Z M 337.714844 398.953125 "/>
<path style=" stroke:none;fill-rule:nonzero;fill:rgb(34.509804%,34.509804%,34.509804%);fill-opacity:1;" d="M 267.820312 240.6875 C 242.308594 222.691406 207.0625 228.820312 189.09375 254.371094 C 171.128906 279.921875 153.101562 346.929688 165.828125 385.746094 C 203.785156 345.585938 262.101562 341.414062 281.480469 319.535156 C 302.191406 296.160156 293.332031 258.683594 267.820312 240.6875 Z M 267.820312 240.6875 "/>
<path style=" stroke:none;fill-rule:nonzero;fill:rgb(100%,100%,100%);fill-opacity:1;" d="M 252.945312 280.09375 C 252.945312 290.285156 244.695312 298.550781 234.519531 298.550781 C 224.34375 298.550781 216.09375 290.285156 216.09375 280.09375 C 216.09375 269.902344 224.34375 261.636719 234.519531 261.636719 C 244.695312 261.636719 252.945312 269.902344 252.945312 280.09375 Z M 252.945312 280.09375 "/>
<path style=" stroke:none;fill-rule:nonzero;fill:rgb(34.509804%,34.509804%,34.509804%);fill-opacity:1;" d="M 162.320312 393.753906 C 162.320312 400.429688 156.914062 405.84375 150.25 405.84375 C 143.585938 405.84375 138.183594 400.429688 138.183594 393.753906 C 138.183594 387.078125 143.585938 381.667969 150.25 381.667969 C 156.914062 381.667969 162.320312 387.078125 162.320312 393.753906 Z M 162.320312 393.753906 "/>
<use xlink:href="#surface5" mask="url(#mask0)"/>
<use xlink:href="#surface8" mask="url(#mask1)"/>
<path style=" stroke:none;fill-rule:nonzero;fill:rgb(80%,80%,80%);fill-opacity:1;" d="M 57.308594 630.972656 C 57.308594 631.308594 57.441406 631.628906 57.679688 631.867188 C 57.914062 632.105469 58.238281 632.238281 58.574219 632.234375 L 576.402344 632.234375 C 577.101562 632.234375 577.664062 631.671875 577.664062 630.972656 C 577.664062 630.273438 577.101562 629.707031 576.402344 629.707031 L 58.574219 629.707031 C 58.238281 629.707031 57.914062 629.839844 57.679688 630.078125 C 57.441406 630.316406 57.308594 630.636719 57.308594 630.972656 Z M 57.308594 630.972656 "/>
<path style=" stroke:none;fill-rule:nonzero;fill:rgb(90.196078%,90.196078%,90.196078%);fill-opacity:1;" d="M 543.574219 363.207031 C 542.464844 360.332031 538.214844 359.296875 534.089844 360.898438 C 529.960938 362.496094 527.515625 366.125 528.628906 369 C 529.738281 371.878906 533.984375 372.910156 538.113281 371.3125 C 542.242188 369.710938 544.6875 366.082031 543.574219 363.207031 Z M 543.574219 363.207031 "/>
<path style=" stroke:none;fill-rule:nonzero;fill:rgb(90.196078%,90.196078%,90.196078%);fill-opacity:1;" d="M 595.546875 356.527344 C 594.4375 353.652344 590.1875 352.617188 586.0625 354.21875 C 581.933594 355.816406 579.488281 359.445312 580.601562 362.320312 C 581.710938 365.199219 585.957031 366.230469 590.085938 364.632812 C 594.214844 363.03125 596.660156 359.402344 595.546875 356.527344 Z M 595.546875 356.527344 "/>
<path style=" stroke:none;fill-rule:nonzero;fill:rgb(90.196078%,90.196078%,90.196078%);fill-opacity:1;" d="M 539.066406 407.613281 C 537.957031 404.738281 533.707031 403.703125 529.582031 405.304688 C 525.453125 406.90625 523.007812 410.535156 524.121094 413.410156 C 525.230469 416.285156 529.480469 417.320312 533.605469 415.71875 C 537.734375 414.117188 540.179688 410.492188 539.066406 407.613281 Z M 539.066406 407.613281 "/>
<path style=" stroke:none;fill-rule:nonzero;fill:rgb(90.196078%,90.196078%,90.196078%);fill-opacity:1;" d="M 520.835938 429.558594 C 520.191406 426.832031 518.132812 424.984375 516.238281 425.433594 C 514.347656 425.882812 513.332031 428.457031 513.976562 431.183594 C 514.621094 433.910156 516.679688 435.757812 518.574219 435.308594 C 520.464844 434.859375 521.480469 432.285156 520.835938 429.558594 Z M 520.835938 429.558594 "/>
<path style=" stroke:none;fill-rule:nonzero;fill:rgb(90.196078%,90.196078%,90.196078%);fill-opacity:1;" d="M 520.523438 462.722656 C 519.882812 459.996094 517.824219 458.148438 515.929688 458.597656 C 514.035156 459.046875 513.023438 461.621094 513.667969 464.347656 C 514.3125 467.074219 516.371094 468.921875 518.261719 468.472656 C 520.15625 468.023438 521.167969 465.449219 520.523438 462.722656 Z M 520.523438 462.722656 "/>
<path style=" stroke:none;fill-rule:nonzero;fill:rgb(90.196078%,90.196078%,90.196078%);fill-opacity:1;" d="M 566.136719 394.03125 C 565.492188 391.304688 563.433594 389.460938 561.542969 389.910156 C 559.648438 390.355469 558.636719 392.929688 559.277344 395.65625 C 559.921875 398.382812 561.980469 400.230469 563.875 399.78125 C 565.769531 399.332031 566.78125 396.757812 566.136719 394.03125 Z M 566.136719 394.03125 "/>
<path style=" stroke:none;fill-rule:nonzero;fill:rgb(90.196078%,90.196078%,90.196078%);fill-opacity:1;" d="M 538.765625 387.375 C 538.121094 384.648438 536.0625 382.800781 534.171875 383.25 C 532.277344 383.699219 531.265625 386.273438 531.910156 389 C 532.554688 391.726562 534.609375 393.574219 536.503906 393.125 C 538.398438 392.675781 539.410156 390.101562 538.765625 387.375 Z M 538.765625 387.375 "/>
<path style=" stroke:none;fill-rule:nonzero;fill:rgb(90.196078%,90.196078%,90.196078%);fill-opacity:1;" d="M 567.777344 356.835938 C 567.132812 354.109375 565.074219 352.265625 563.179688 352.710938 C 561.289062 353.160156 560.273438 355.734375 560.917969 358.460938 C 561.5625 361.1875 563.621094 363.035156 565.515625 362.585938 C 567.40625 362.136719 568.421875 359.5625 567.777344 356.835938 Z M 567.777344 356.835938 "/>
<path style=" stroke:none;fill-rule:nonzero;fill:rgb(90.196078%,90.196078%,90.196078%);fill-opacity:1;" d="M 18.425781 497.105469 C 16.859375 492.957031 13.257812 490.480469 10.378906 491.570312 C 7.496094 492.660156 6.429688 496.902344 7.996094 501.050781 C 9.558594 505.199219 13.160156 507.675781 16.042969 506.585938 C 18.921875 505.496094 19.988281 501.253906 18.425781 497.105469 Z M 18.425781 497.105469 "/>
<path style=" stroke:none;fill-rule:nonzero;fill:rgb(90.196078%,90.196078%,90.196078%);fill-opacity:1;" d="M 12.183594 445 C 10.621094 440.855469 7.019531 438.375 4.136719 439.464844 C 1.257812 440.554688 0.191406 444.800781 1.753906 448.945312 C 3.320312 453.09375 6.921875 455.574219 9.800781 454.484375 C 12.683594 453.394531 13.75 449.148438 12.183594 445 Z M 12.183594 445 "/>
<path style=" stroke:none;fill-rule:nonzero;fill:rgb(90.196078%,90.196078%,90.196078%);fill-opacity:1;" d="M 62.722656 501.984375 C 61.160156 497.835938 57.558594 495.359375 54.675781 496.449219 C 51.796875 497.539062 50.730469 501.78125 52.292969 505.929688 C 53.855469 510.078125 57.460938 512.554688 60.339844 511.464844 C 63.21875 510.375 64.289062 506.128906 62.722656 501.984375 Z M 62.722656 501.984375 "/>
<path style=" stroke:none;fill-rule:nonzero;fill:rgb(90.196078%,90.196078%,90.196078%);fill-opacity:1;" d="M 82.15625 517.203125 C 81.726562 515.300781 79.164062 514.265625 76.4375 514.890625 C 73.707031 515.511719 71.847656 517.558594 72.28125 519.457031 C 72.714844 521.359375 75.277344 522.394531 78.003906 521.769531 C 80.730469 521.148438 82.589844 519.101562 82.15625 517.203125 Z M 82.15625 517.203125 "/>
<path style=" stroke:none;fill-rule:nonzero;fill:rgb(90.196078%,90.196078%,90.196078%);fill-opacity:1;" d="M 115.265625 517.785156 C 114.832031 515.882812 112.269531 514.847656 109.542969 515.472656 C 106.816406 516.09375 104.957031 518.140625 105.390625 520.039062 C 105.820312 521.941406 108.382812 522.976562 111.109375 522.351562 C 113.835938 521.730469 115.699219 519.683594 115.265625 517.785156 Z M 115.265625 517.785156 "/>
<path style=" stroke:none;fill-rule:nonzero;fill:rgb(90.196078%,90.196078%,90.196078%);fill-opacity:1;" d="M 47.058594 471.539062 C 46.628906 469.636719 44.066406 468.601562 41.339844 469.226562 C 38.613281 469.847656 36.75 471.894531 37.183594 473.792969 C 37.617188 475.695312 40.179688 476.730469 42.90625 476.105469 C 45.632812 475.484375 47.492188 473.4375 47.058594 471.539062 Z M 47.058594 471.539062 "/>
<path style=" stroke:none;fill-rule:nonzero;fill:rgb(90.196078%,90.196078%,90.196078%);fill-opacity:1;" d="M 40.1875 498.894531 C 39.757812 496.996094 37.195312 495.960938 34.46875 496.582031 C 31.742188 497.207031 29.878906 499.25 30.3125 501.152344 C 30.746094 503.050781 33.308594 504.085938 36.035156 503.464844 C 38.761719 502.84375 40.621094 500.796875 40.1875 498.894531 Z M 40.1875 498.894531 "/>
<path style=" stroke:none;fill-rule:nonzero;fill:rgb(90.196078%,90.196078%,90.196078%);fill-opacity:1;" d="M 9.9375 469.589844 C 9.503906 467.691406 6.945312 466.65625 4.21875 467.277344 C 1.488281 467.898438 -0.371094 469.945312 0.0625 471.84375 C 0.496094 473.746094 3.054688 474.78125 5.785156 474.160156 C 8.511719 473.535156 10.371094 471.488281 9.9375 469.589844 Z M 9.9375 469.589844 "/>
<path style=" stroke:none;fill-rule:nonzero;fill:rgb(90.196078%,90.196078%,90.196078%);fill-opacity:1;" d="M 108.769531 10.5625 C 107.660156 7.683594 103.410156 6.652344 99.285156 8.25 C 95.15625 9.851562 92.710938 13.480469 93.824219 16.355469 C 94.933594 19.230469 99.183594 20.265625 103.308594 18.664062 C 107.4375 17.066406 109.882812 13.4375 108.769531 10.5625 Z M 108.769531 10.5625 "/>
<path style=" stroke:none;fill-rule:nonzero;fill:rgb(90.196078%,90.196078%,90.196078%);fill-opacity:1;" d="M 160.738281 3.882812 C 159.625 1.007812 155.378906 -0.0273438 151.253906 1.574219 C 147.125 3.175781 144.679688 6.804688 145.792969 9.679688 C 146.902344 12.554688 151.148438 13.589844 155.277344 11.988281 C 159.40625 10.386719 161.851562 6.761719 160.738281 3.882812 Z M 160.738281 3.882812 "/>
<path style=" stroke:none;fill-rule:nonzero;fill:rgb(90.196078%,90.196078%,90.196078%);fill-opacity:1;" d="M 104.261719 54.96875 C 103.152344 52.09375 98.90625 51.058594 94.777344 52.660156 C 90.648438 54.257812 88.203125 57.886719 89.316406 60.765625 C 90.429688 63.640625 94.675781 64.675781 98.800781 63.074219 C 102.929688 61.472656 105.375 57.84375 104.261719 54.96875 Z M 104.261719 54.96875 "/>
<path style=" stroke:none;fill-rule:nonzero;fill:rgb(90.196078%,90.196078%,90.196078%);fill-opacity:1;" d="M 86.03125 76.914062 C 85.386719 74.1875 83.328125 72.339844 81.433594 72.789062 C 79.542969 73.238281 78.527344 75.8125 79.171875 78.539062 C 79.816406 81.265625 81.875 83.109375 83.769531 82.664062 C 85.660156 82.214844 86.675781 79.640625 86.03125 76.914062 Z M 86.03125 76.914062 "/>
<path style=" stroke:none;fill-rule:nonzero;fill:rgb(90.196078%,90.196078%,90.196078%);fill-opacity:1;" d="M 85.722656 110.078125 C 85.078125 107.351562 83.019531 105.503906 81.125 105.953125 C 79.230469 106.402344 78.21875 108.976562 78.863281 111.703125 C 79.507812 114.429688 81.566406 116.273438 83.457031 115.828125 C 85.351562 115.378906 86.367188 112.804688 85.722656 110.078125 Z M 85.722656 110.078125 "/>
<path style=" stroke:none;fill-rule:nonzero;fill:rgb(90.196078%,90.196078%,90.196078%);fill-opacity:1;" d="M 131.332031 41.386719 C 130.6875 38.660156 128.628906 36.8125 126.738281 37.261719 C 124.84375 37.710938 123.832031 40.285156 124.476562 43.011719 C 125.117188 45.738281 127.175781 47.585938 129.070312 47.136719 C 130.964844 46.6875 131.976562 44.113281 131.332031 41.386719 Z M 131.332031 41.386719 "/>
<path style=" stroke:none;fill-rule:nonzero;fill:rgb(90.196078%,90.196078%,90.196078%);fill-opacity:1;" d="M 103.960938 34.730469 C 103.316406 32.003906 101.261719 30.15625 99.367188 30.605469 C 97.472656 31.054688 96.460938 33.628906 97.105469 36.355469 C 97.75 39.082031 99.804688 40.925781 101.699219 40.480469 C 103.59375 40.03125 104.605469 37.457031 103.960938 34.730469 Z M 103.960938 34.730469 "/>
<path style=" stroke:none;fill-rule:nonzero;fill:rgb(90.196078%,90.196078%,90.196078%);fill-opacity:1;" d="M 132.972656 4.191406 C 132.328125 1.464844 130.269531 -0.382812 128.378906 0.0664062 C 126.484375 0.515625 125.472656 3.089844 126.113281 5.816406 C 126.757812 8.542969 128.816406 10.390625 130.710938 9.941406 C 132.605469 9.492188 133.617188 6.917969 132.972656 4.191406 Z M 132.972656 4.191406 "/>
<path style=" stroke:none;fill-rule:nonzero;fill:rgb(90.196078%,90.196078%,90.196078%);fill-opacity:1;" d="M 238.132812 433.484375 C 238.132812 448.148438 226.265625 460.039062 211.621094 460.039062 C 196.980469 460.039062 185.109375 448.148438 185.109375 433.484375 C 185.109375 418.816406 196.980469 406.929688 211.621094 406.929688 C 226.265625 406.929688 238.132812 418.816406 238.132812 433.484375 Z M 238.132812 433.484375 "/>
<path style=" stroke:none;fill-rule:nonzero;fill:rgb(90.196078%,90.196078%,90.196078%);fill-opacity:1;" d="M 164.960938 433.484375 C 164.960938 441.695312 158.3125 448.355469 150.113281 448.355469 C 141.914062 448.355469 135.265625 441.695312 135.265625 433.484375 C 135.265625 425.269531 141.914062 418.613281 150.113281 418.613281 C 158.3125 418.613281 164.960938 425.269531 164.960938 433.484375 Z M 164.960938 433.484375 "/>
<path style=" stroke:none;fill-rule:nonzero;fill:rgb(90.196078%,90.196078%,90.196078%);fill-opacity:1;" d="M 287.976562 433.484375 C 287.976562 441.695312 281.332031 448.355469 273.128906 448.355469 C 264.929688 448.355469 258.285156 441.695312 258.285156 433.484375 C 258.285156 425.269531 264.929688 418.613281 273.128906 418.613281 C 281.332031 418.613281 287.976562 425.269531 287.976562 433.484375 Z M 287.976562 433.484375 "/>
<path style=" stroke:none;fill-rule:nonzero;fill:rgb(24.705882%,23.921569%,33.72549%);fill-opacity:1;" d="M 93.164062 279.03125 L 168.0625 279.03125 L 168.0625 281.15625 L 93.164062 281.15625 Z M 93.164062 279.03125 "/>
</g>
</svg>
