<?xml version="1.0" encoding="UTF-8"?>
<svg xmlns="http://www.w3.org/2000/svg" xmlns:xlink="http://www.w3.org/1999/xlink" width="648px" height="632px" viewBox="0 0 648 632" version="1.1">
<g id="surface1">
<path style=" stroke:none;fill-rule:nonzero;fill:rgb(94.901961%,94.901961%,94.901961%);fill-opacity:1;" d="M 411.144531 142.171875 L 236.636719 142.171875 C 228.355469 142.183594 221.644531 148.894531 221.636719 157.171875 L 221.636719 545.023438 L 219.636719 545.632812 L 176.828125 558.742188 C 172.601562 560.03125 168.132812 557.65625 166.835938 553.433594 L 39.496094 137.484375 C 38.207031 133.257812 40.582031 128.789062 44.804688 127.492188 L 110.777344 107.292969 L 302.027344 48.753906 L 367.996094 28.554688 C 370.023438 27.929688 372.214844 28.136719 374.089844 29.132812 C 375.964844 30.125 377.367188 31.824219 377.988281 33.855469 L 410.535156 140.171875 Z M 411.144531 142.171875 "/>
<path style=" stroke:none;fill-rule:nonzero;fill:rgb(24.705882%,23.921569%,33.72549%);fill-opacity:1;" d="M 449.226562 140.171875 L 409.996094 12.035156 C 407.25 3.054688 397.742188 -1.996094 388.765625 0.753906 L 296.015625 29.144531 L 104.777344 87.695312 L 12.027344 116.09375 C 3.054688 118.847656 -1.992188 128.347656 0.746094 137.324219 L 134.828125 575.253906 C 137.019531 582.398438 143.613281 587.277344 151.085938 587.285156 C 152.769531 587.285156 154.445312 587.03125 156.054688 586.535156 L 219.636719 567.074219 L 221.636719 566.453125 L 221.636719 564.363281 L 219.636719 564.972656 L 155.464844 584.625 C 147.546875 587.039062 139.167969 582.585938 136.738281 574.675781 L 2.667969 136.734375 C 1.496094 132.929688 1.890625 128.820312 3.753906 125.304688 C 5.621094 121.789062 8.808594 119.164062 12.617188 118.003906 L 105.367188 89.605469 L 296.605469 31.0625 L 389.355469 2.664062 C 390.785156 2.226562 392.273438 2.003906 393.765625 2.003906 C 400.347656 2.019531 406.15625 6.320312 408.085938 12.613281 L 447.136719 140.175781 L 447.757812 142.175781 L 449.835938 142.175781 Z M 449.226562 140.171875 "/>
<path style=" stroke:none;fill-rule:nonzero;fill:rgb(15.686275%,15.686275%,17.647059%);fill-opacity:1;" d="M 122.679688 127.820312 C 118.722656 127.816406 115.230469 125.234375 114.070312 121.453125 L 101.1875 79.382812 C 99.734375 74.628906 102.40625 69.597656 107.160156 68.140625 L 283.097656 14.277344 C 287.851562 12.828125 292.882812 15.5 294.339844 20.25 L 307.21875 62.320312 C 308.667969 67.074219 306 72.101562 301.25 73.5625 L 125.308594 127.425781 C 124.457031 127.6875 123.570312 127.820312 122.679688 127.820312 Z M 122.679688 127.820312 "/>
<path style=" stroke:none;fill-rule:nonzero;fill:rgb(15.686275%,15.686275%,17.647059%);fill-opacity:1;" d="M 210.152344 24.953125 C 210.152344 36 201.199219 44.953125 190.152344 44.953125 C 179.109375 44.953125 170.152344 36 170.152344 24.953125 C 170.152344 13.910156 179.109375 4.953125 190.152344 4.953125 C 201.199219 4.953125 210.152344 13.910156 210.152344 24.953125 Z M 210.152344 24.953125 "/>
<path style=" stroke:none;fill-rule:nonzero;fill:rgb(100%,100%,100%);fill-opacity:1;" d="M 202.816406 24.953125 C 202.816406 31.949219 197.148438 37.621094 190.152344 37.621094 C 183.160156 37.621094 177.488281 31.949219 177.488281 24.953125 C 177.488281 17.960938 183.160156 12.289062 190.152344 12.289062 C 197.148438 12.289062 202.816406 17.960938 202.816406 24.953125 Z M 202.816406 24.953125 "/>
<path style=" stroke:none;fill-rule:nonzero;fill:rgb(90.196078%,90.196078%,90.196078%);fill-opacity:1;" d="M 602.636719 582.171875 L 264.636719 582.171875 C 259.945312 582.167969 256.140625 578.367188 256.136719 573.671875 L 256.136719 168.671875 C 256.140625 163.980469 259.945312 160.179688 264.636719 160.171875 L 602.636719 160.171875 C 607.328125 160.179688 611.132812 163.980469 611.136719 168.671875 L 611.136719 573.671875 C 611.132812 578.367188 607.328125 582.167969 602.636719 582.171875 Z M 602.636719 582.171875 "/>
<path style=" stroke:none;fill-rule:nonzero;fill:rgb(24.705882%,23.921569%,33.72549%);fill-opacity:1;" d="M 447.136719 140.171875 L 236.636719 140.171875 C 227.253906 140.1875 219.648438 147.789062 219.636719 157.171875 L 219.636719 564.972656 L 221.636719 564.363281 L 221.636719 157.171875 C 221.644531 148.894531 228.355469 142.183594 236.636719 142.171875 L 447.757812 142.171875 Z M 630.636719 140.171875 L 236.636719 140.171875 C 227.253906 140.1875 219.648438 147.789062 219.636719 157.171875 L 219.636719 615.171875 C 219.648438 624.558594 227.253906 632.160156 236.636719 632.171875 L 630.636719 632.171875 C 640.019531 632.160156 647.621094 624.558594 647.636719 615.171875 L 647.636719 157.171875 C 647.621094 147.789062 640.019531 140.1875 630.636719 140.171875 Z M 645.636719 615.171875 C 645.625 623.453125 638.917969 630.164062 630.636719 630.171875 L 236.636719 630.171875 C 228.355469 630.164062 221.644531 623.453125 221.636719 615.171875 L 221.636719 157.171875 C 221.644531 148.894531 228.355469 142.183594 236.636719 142.171875 L 630.636719 142.171875 C 638.917969 142.183594 645.625 148.894531 645.636719 157.171875 Z M 645.636719 615.171875 "/>
<path style=" stroke:none;fill-rule:nonzero;fill:rgb(15.686275%,15.686275%,17.647059%);fill-opacity:1;" d="M 525.636719 184.171875 L 341.636719 184.171875 C 336.667969 184.167969 332.640625 180.140625 332.636719 175.171875 L 332.636719 131.171875 C 332.640625 126.207031 336.667969 122.179688 341.636719 122.171875 L 525.636719 122.171875 C 530.605469 122.179688 534.632812 126.207031 534.636719 131.171875 L 534.636719 175.171875 C 534.632812 180.140625 530.605469 184.167969 525.636719 184.171875 Z M 525.636719 184.171875 "/>
<path style=" stroke:none;fill-rule:nonzero;fill:rgb(15.686275%,15.686275%,17.647059%);fill-opacity:1;" d="M 453.636719 105.175781 C 453.636719 116.21875 444.683594 125.175781 433.636719 125.175781 C 422.589844 125.175781 413.636719 116.21875 413.636719 105.175781 C 413.636719 94.128906 422.589844 85.175781 433.636719 85.175781 C 444.683594 85.175781 453.636719 94.128906 453.636719 105.175781 Z M 453.636719 105.175781 "/>
<path style=" stroke:none;fill-rule:nonzero;fill:rgb(100%,100%,100%);fill-opacity:1;" d="M 445.816406 105.175781 C 445.816406 111.902344 440.363281 117.355469 433.636719 117.355469 C 426.910156 117.355469 421.453125 111.902344 421.453125 105.175781 C 421.453125 98.445312 426.910156 92.992188 433.636719 92.992188 C 440.363281 92.992188 445.816406 98.445312 445.816406 105.175781 Z M 445.816406 105.175781 "/>
</g>
</svg>
