<svg width="664" height="648" viewBox="0 0 664 648" fill="none" xmlns="http://www.w3.org/2000/svg">
<g clip-path="url(#clip0_2_59)">
<path d="M421.391 145.716H242.533C238.457 145.721 234.549 147.343 231.667 150.225C228.785 153.107 227.164 157.014 227.159 161.09V558.604L225.109 559.23L181.232 572.666C179.153 573.3 176.907 573.083 174.987 572.063C173.068 571.043 171.631 569.302 170.994 567.224L40.4803 140.91C39.8451 138.83 40.0616 136.584 41.0821 134.664C42.1026 132.744 43.8437 131.307 45.9226 130.671L113.537 109.967L309.552 49.9686L377.166 29.2653C378.195 28.9486 379.276 28.8379 380.348 28.9396C381.42 29.0413 382.461 29.3534 383.412 29.8579C384.363 30.3625 385.205 31.0496 385.89 31.88C386.575 32.7104 387.09 33.6678 387.405 34.6973L420.766 143.667L421.391 145.716Z" fill="#F2F2F2"/>
<path d="M460.42 143.666L420.212 12.3335C419.543 10.1452 418.45 8.11021 416.994 6.34477C415.538 4.57932 413.749 3.11803 411.728 2.04439C409.707 0.970743 407.495 0.305781 405.217 0.0875263C402.939 -0.130729 400.641 0.102 398.453 0.772389L303.392 29.8698L107.387 89.8787L12.3259 118.986C7.9099 120.342 4.21229 123.395 2.04474 127.475C-0.12282 131.554 -0.58324 136.327 0.76456 140.745L138.186 589.588C139.28 593.154 141.49 596.276 144.489 598.495C147.488 600.714 151.12 601.914 154.851 601.917C156.578 601.918 158.295 601.659 159.945 601.149L225.109 581.204L227.159 580.568V578.426L225.109 579.051L159.34 599.191C155.442 600.379 151.232 599.973 147.633 598.061C144.034 596.149 141.341 592.888 140.143 588.993L2.73282 140.141C2.13949 138.211 1.93269 136.183 2.12428 134.173C2.31586 132.163 2.90204 130.21 3.84929 128.427C4.79654 126.644 6.08625 125.065 7.64453 123.781C9.20281 122.497 10.9991 121.533 12.9305 120.944L107.992 91.8363L303.997 31.8377L399.058 2.73C400.523 2.28293 402.046 2.05498 403.578 2.05355C406.865 2.06093 410.063 3.12065 412.704 5.07749C415.345 7.03433 417.291 9.78547 418.255 12.9279L458.278 143.666L458.913 145.716H461.045L460.42 143.666Z" fill="#3F3D56"/>
<path d="M125.738 131.006C123.762 131.004 121.839 130.37 120.251 129.196C118.663 128.021 117.492 126.369 116.912 124.48L103.711 81.3603C103.356 80.202 103.233 78.9852 103.348 77.7794C103.464 76.5735 103.816 75.4022 104.384 74.3324C104.953 73.2626 105.726 72.3153 106.661 71.5445C107.595 70.7736 108.672 70.1945 109.831 69.84L290.154 14.6341C292.493 13.9203 295.02 14.1637 297.18 15.311C299.34 16.4583 300.956 18.4157 301.674 20.7536L314.876 63.8742C315.589 66.2134 315.345 68.7401 314.198 70.8999C313.051 73.0598 311.094 74.6763 308.756 75.395L128.433 130.601C127.56 130.869 126.651 131.005 125.738 131.006V131.006Z" fill="#28282D"/>
<path d="M194.892 46.0748C206.213 46.0748 215.39 36.8974 215.39 25.5765C215.39 14.2555 206.213 5.07812 194.892 5.07812C183.571 5.07812 174.393 14.2555 174.393 25.5765C174.393 36.8974 183.571 46.0748 194.892 46.0748Z" fill="#28282D"/>
<path d="M194.892 38.5566C202.06 38.5566 207.872 32.7452 207.872 25.5764C207.872 18.4077 202.06 12.5963 194.892 12.5963C187.723 12.5963 181.911 18.4077 181.911 25.5764C181.911 32.7452 187.723 38.5566 194.892 38.5566Z" fill="white"/>
<path d="M617.653 596.68H271.231C268.921 596.677 266.706 595.759 265.073 594.126C263.44 592.492 262.521 590.278 262.519 587.968V172.877C262.521 170.567 263.44 168.353 265.073 166.719C266.706 165.086 268.921 164.168 271.231 164.165H617.653C619.962 164.168 622.177 165.086 623.81 166.72C625.443 168.353 626.362 170.567 626.364 172.877V587.968C626.362 590.278 625.443 592.492 623.81 594.125C622.177 595.759 619.962 596.677 617.653 596.68V596.68Z" fill="#E6E6E6"/>
<path d="M458.278 143.667H242.533C237.914 143.673 233.486 145.511 230.22 148.777C226.953 152.043 225.116 156.471 225.109 161.09V579.052L227.159 578.426V161.09C227.164 157.014 228.785 153.107 231.667 150.225C234.549 147.343 238.457 145.721 242.533 145.716H458.913L458.278 143.667ZM646.35 143.667H242.533C237.914 143.673 233.486 145.511 230.22 148.777C226.953 152.043 225.116 156.471 225.109 161.09V630.502C225.116 635.121 226.953 639.549 230.22 642.816C233.486 646.082 237.914 647.919 242.533 647.926H646.35C650.969 647.919 655.397 646.082 658.663 642.816C661.929 639.549 663.767 635.121 663.774 630.502V161.09C663.767 156.471 661.929 152.043 658.663 148.777C655.397 145.511 650.969 143.673 646.35 143.667V143.667ZM661.724 630.502C661.719 634.578 660.098 638.486 657.216 641.368C654.333 644.25 650.426 645.871 646.35 645.876H242.533C238.457 645.871 234.549 644.25 231.667 641.368C228.785 638.486 227.164 634.578 227.159 630.502V161.09C227.164 157.014 228.785 153.107 231.667 150.225C234.549 147.343 238.457 145.721 242.533 145.716H646.35C650.426 145.721 654.333 147.343 657.216 150.225C660.098 153.107 661.719 157.014 661.724 161.09V630.502Z" fill="#3F3D56"/>
<path d="M538.734 188.763H350.149C347.704 188.76 345.359 187.787 343.63 186.058C341.9 184.329 340.928 181.984 340.925 179.539V134.442C340.928 131.997 341.9 129.652 343.63 127.923C345.359 126.194 347.704 125.221 350.149 125.218H538.734C541.18 125.221 543.524 126.194 545.253 127.923C546.983 129.652 547.956 131.997 547.958 134.442V179.539C547.956 181.984 546.983 184.329 545.254 186.058C543.524 187.787 541.18 188.76 538.734 188.763V188.763Z" fill="#28282D"/>
<path d="M444.441 128.293C455.762 128.293 464.94 119.115 464.94 107.794C464.94 96.4736 455.762 87.2961 444.441 87.2961C433.12 87.2961 423.943 96.4736 423.943 107.794C423.943 119.115 433.12 128.293 444.441 128.293Z" fill="#28282D"/>
<path d="M444.441 120.28C451.337 120.28 456.927 114.69 456.927 107.794C456.927 100.899 451.337 95.3091 444.441 95.3091C437.546 95.3091 431.956 100.899 431.956 107.794C431.956 114.69 437.546 120.28 444.441 120.28Z" fill="white"/>
</g>
<defs>
<clipPath id="clip0_2_59">
<rect width="663.774" height="647.926" fill="white"/>
</clipPath>
</defs>
</svg>
